<?xml version="1.0" encoding="utf-8"?>
<!-- Generator: Adobe Illustrator 25.2.1, SVG Export Plug-In . SVG Version: 6.00 Build 0)  -->
<svg version="1.1" id="Layer_1" xmlns="http://www.w3.org/2000/svg" xmlns:xlink="http://www.w3.org/1999/xlink" x="0px" y="0px"
	 viewBox="0 0 325.8 325.8" style="enable-background:new 0 0 325.8 325.8;" xml:space="preserve">
<style type="text/css">
	.st0{fill-rule:evenodd;clip-rule:evenodd;fill:#B1060F;stroke:#000000;stroke-width:0.2326;stroke-miterlimit:10;}
	.st1{fill-rule:evenodd;clip-rule:evenodd;fill:url(#SVGID_1_);}
	.st2{fill-rule:evenodd;clip-rule:evenodd;fill:#E50914;}
	.st3{fill-rule:evenodd;clip-rule:evenodd;fill:url(#SVGID_2_);}
</style>
<g transform="translate(12.494543 6.7556334)">
	<g transform="translate(81.631476 113.77111) scale(.29074)">
		<path class="st0" d="M309.2-341.1l-0.4,203l-0.4,203l-16.7-47.1c0,0,0-0.1,0-0.1l-21.6,451.9c21.2,59.9,32.6,91.9,32.7,92
			c0.2,0.2,12.3,0.9,26.9,1.6c44.3,2.2,99.1,6.9,140.7,12.1c9.6,1.2,17.9,1.8,18.4,1.4c0.5-0.4,0.8-207.1,0.6-459.3l-0.3-458.5
			H309.2z M-16.4-341.7v458.9c0,252.4,0.2,459.2,0.5,459.5c0.3,0.3,15.9-1.2,34.7-3.3c18.8-2.1,44.8-4.7,57.7-5.8
			c19.9-1.7,79.2-5.5,86.1-5.5c2,0,2.1-10.3,2.4-194.4l0.3-194.4l14.4,40.6c2.2,6.3,2.9,8.2,5.1,14.4l21.6-451.8
			c-4.6-12.9-2.2-6.1-7.4-21c-17.6-49.8-32.6-92.1-33.2-93.9l-1.2-3.3H-16.4z"/>
		
			<radialGradient id="SVGID_1_" cx="11942.7051" cy="-108.7589" r="445.4999" gradientTransform="matrix(7.072426e-02 -2.448729e-02 -0.897 -2.5906 -714.0001 122.9425)" gradientUnits="userSpaceOnUse">
			<stop  offset="0" style="stop-color:#000000"/>
			<stop  offset="1" style="stop-color:#000000;stop-opacity:0"/>
		</radialGradient>
		<path class="st1" d="M-16.4-341.7v257.6l181.5,481.4c0-11,0-17,0.1-29.6l0.3-194.4l14.4,40.6c79.9,226.1,122.9,347.4,123.1,347.6
			c0.2,0.2,12.3,0.9,26.9,1.6c44.3,2.2,99.1,6.9,140.7,12.1c9.6,1.2,17.9,1.8,18.4,1.4c0.3-0.3,0.6-101.6,0.6-244.6L309-187.2
			l-0.1,49.1l-0.4,203l-16.7-47.1c-16.3-46-27.2-76.8-92.8-262.2c-17.6-49.8-32.6-92.1-33.2-93.9l-1.2-3.3H-16.4L-16.4-341.7z"/>
		<path class="st2" d="M-16.4-341.7l181.8,515.3v-0.2l14.4,40.6c79.9,226.1,122.9,347.4,123.1,347.6c0.2,0.2,12.3,0.9,26.9,1.6
			c44.3,2.2,99.1,6.9,140.7,12.1c9.6,1.2,17.8,1.8,18.4,1.4L308.5,64.8v0.1l-16.7-47.1c-16.3-46-27.2-76.8-92.8-262.2
			c-17.6-49.8-32.6-92.1-33.2-93.9l-1.2-3.3L-16.4-341.7L-16.4-341.7z"/>
		<path class="st0" d="M309.2-341.1l-0.4,203l-0.4,203l-16.7-47.1c0,0,0-0.1,0-0.1l-21.6,451.9c21.2,59.9,32.6,91.9,32.7,92
			c0.2,0.2,12.3,0.9,26.9,1.6c44.3,2.2,99.1,6.9,140.7,12.1c9.6,1.2,17.9,1.8,18.4,1.4c0.5-0.4,0.8-207.1,0.6-459.3l-0.3-458.5
			H309.2z M-16.4-341.7v458.9c0,252.4,0.2,459.2,0.5,459.5c0.3,0.3,15.9-1.2,34.7-3.3c18.8-2.1,44.8-4.7,57.7-5.8
			c19.9-1.7,79.2-5.5,86.1-5.5c2,0,2.1-10.3,2.4-194.4l0.3-194.4l14.4,40.6c2.2,6.3,2.9,8.2,5.1,14.4l21.6-451.8
			c-4.6-12.9-2.2-6.1-7.4-21c-17.6-49.8-32.6-92.1-33.2-93.9l-1.2-3.3H-16.4z"/>
		
			<radialGradient id="SVGID_2_" cx="11942.7051" cy="-108.7589" r="445.4999" gradientTransform="matrix(7.072426e-02 -2.448729e-02 -0.897 -2.5906 -714.0001 122.9425)" gradientUnits="userSpaceOnUse">
			<stop  offset="0" style="stop-color:#000000"/>
			<stop  offset="1" style="stop-color:#000000;stop-opacity:0"/>
		</radialGradient>
		<path class="st3" d="M-16.4-341.7v257.6l181.5,481.4c0-11,0-17,0.1-29.6l0.3-194.4l14.4,40.6c79.9,226.1,122.9,347.4,123.1,347.6
			c0.2,0.2,12.3,0.9,26.9,1.6c44.3,2.2,99.1,6.9,140.7,12.1c9.6,1.2,17.9,1.8,18.4,1.4c0.3-0.3,0.6-101.6,0.6-244.6L309-187.2
			l-0.1,49.1l-0.4,203l-16.7-47.1c-16.3-46-27.2-76.8-92.8-262.2c-17.6-49.8-32.6-92.1-33.2-93.9l-1.2-3.3H-16.4L-16.4-341.7z"/>
		<path class="st2" d="M-16.4-341.7l181.8,515.3v-0.2l14.4,40.6c79.9,226.1,122.9,347.4,123.1,347.6c0.2,0.2,12.3,0.9,26.9,1.6
			c44.3,2.2,99.1,6.9,140.7,12.1c9.6,1.2,17.8,1.8,18.4,1.4L308.5,64.8v0.1l-16.7-47.1c-16.3-46-27.2-76.8-92.8-262.2
			c-17.6-49.8-32.6-92.1-33.2-93.9l-1.2-3.3L-16.4-341.7L-16.4-341.7z"/>
	</g>
</g>
</svg>
